<?xml version="1.0" encoding="UTF-8"?>
<!DOCTYPE svg PUBLIC "-//W3C//DTD SVG 1.1//EN" "http://www.w3.org/Graphics/SVG/1.1/DTD/svg11.dtd">
<svg xmlns="http://www.w3.org/2000/svg" xml:space="preserve" width="42.3333mm" height="42.3333mm" version="1.1" style="shape-rendering:geometricPrecision; text-rendering:geometricPrecision; image-rendering:optimizeQuality; fill-rule:evenodd; clip-rule:evenodd"
  viewBox="0 0 2315 2315"
  xmlns:xlink="http://www.w3.org/1999/xlink">
  <g>
    <g>
      <path d="M1157 63c85,0 161,34 216,90 55,55 89,131 89,215 0,84 -34,161 -89,216 -55,55 -131,89 -216,89 -84,0 -160,-34 -215,-89 -55,-55 -89,-132 -89,-216 0,-84 34,-160 89,-215 55,-56 131,-90 215,-90zm179 127c-46,-46 -109,-74 -179,-74 -69,0 -132,28 -178,74 -46,46 -74,109 -74,178 0,70 28,133 74,179 46,45 109,73 178,73 70,0 133,-28 179,-73 45,-46 74,-109 74,-179 0,-69 -29,-132 -74,-178z"/>
      <g>
        <path d="M1414 1594c0,-5 0,-10 0,-13 4,-25 22,-28 23,-29 55,-15 99,-38 130,-75 31,-38 49,-91 49,-165l0 -124c0,-126 -52,-241 -135,-324 -83,-83 -198,-135 -324,-135 -126,0 -240,52 -323,135 -83,83 -135,198 -135,324l0 124c0,74 18,127 49,165 32,38 78,61 134,76 11,3 20,14 19,27 0,4 0,9 0,14l0 348c0,71 29,135 75,182 47,46 111,75 181,75 71,0 135,-29 182,-75 46,-47 74,-113 74,-184l0 -348 1 2zm53 4l0 344c0,86 -35,163 -91,219 -56,56 -133,91 -219,91 -85,0 -162,-35 -218,-91 -56,-56 -91,-133 -91,-219l0 -344c-57,-18 -105,-45 -140,-88 -39,-47 -61,-111 -61,-198l0 -124c0,-141 57,-269 150,-361 92,-93 220,-150 360,-150l0 0c141,0 269,57 361,150 93,92 150,220 150,361l0 124c0,87 -22,151 -61,198 -35,43 -83,70 -140,88z"/>
      </g>
    </g>
  </g>
</svg>
